<svg xmlns="http://www.w3.org/2000/svg" viewBox="0 0 1044 622" width="1044" height="622" role="img" aria-label="NullToHero comparison matrix">
<rect x="0.5" y="0.5" width="1043" height="621" rx="14" fill="#0F1E33" stroke="none" stroke-width="1"/>
<text x="26" y="48" font-family="-apple-system,'Segoe UI',Roboto,Helvetica,Arial,sans-serif" font-size="18" font-weight="700" fill="#F4EFE6">How NullToHero compares</text>
<text x="1018" y="48" font-family="-apple-system,'Segoe UI',Roboto,Helvetica,Arial,sans-serif" font-size="11" fill="#8FA1B8" text-anchor="end">12 capabilities · 5 tool families</text>
<rect x="26" y="72" width="992" height="484" rx="10" fill="#13263F"/><rect x="398" y="72" width="124" height="484" fill="rgba(47,191,167,0.10)" stroke="rgba(47,191,167,0.55)" stroke-width="1.2" rx="8"/><text x="460" y="98" font-family="-apple-system,'Segoe UI',Roboto,Helvetica,Arial,sans-serif" font-size="14" font-weight="700" fill="#2FBFA7" text-anchor="middle">NullToHero</text><text x="584" y="98" font-family="-apple-system,'Segoe UI',Roboto,Helvetica,Arial,sans-serif" font-size="12.5" font-weight="700" fill="#F4EFE6" text-anchor="middle">AI site builders</text><text x="584" y="112" font-family="-apple-system,'Segoe UI',Roboto,Helvetica,Arial,sans-serif" font-size="9" fill="#8FA1B8" text-anchor="middle">v0</text><text x="584" y="123" font-family="-apple-system,'Segoe UI',Roboto,Helvetica,Arial,sans-serif" font-size="9" fill="#8FA1B8" text-anchor="middle">Lovable</text><text x="584" y="134" font-family="-apple-system,'Segoe UI',Roboto,Helvetica,Arial,sans-serif" font-size="9" fill="#8FA1B8" text-anchor="middle">Bolt</text><text x="708" y="98" font-family="-apple-system,'Segoe UI',Roboto,Helvetica,Arial,sans-serif" font-size="12.5" font-weight="700" fill="#F4EFE6" text-anchor="middle">Audit tools</text><text x="708" y="112" font-family="-apple-system,'Segoe UI',Roboto,Helvetica,Arial,sans-serif" font-size="9" fill="#8FA1B8" text-anchor="middle">Lighthouse</text><text x="708" y="123" font-family="-apple-system,'Segoe UI',Roboto,Helvetica,Arial,sans-serif" font-size="9" fill="#8FA1B8" text-anchor="middle">axe</text><text x="832" y="98" font-family="-apple-system,'Segoe UI',Roboto,Helvetica,Arial,sans-serif" font-size="12.5" font-weight="700" fill="#F4EFE6" text-anchor="middle">SEO suites</text><text x="832" y="112" font-family="-apple-system,'Segoe UI',Roboto,Helvetica,Arial,sans-serif" font-size="9" fill="#8FA1B8" text-anchor="middle">Semrush</text><text x="832" y="123" font-family="-apple-system,'Segoe UI',Roboto,Helvetica,Arial,sans-serif" font-size="9" fill="#8FA1B8" text-anchor="middle">Ahrefs</text><text x="956" y="98" font-family="-apple-system,'Segoe UI',Roboto,Helvetica,Arial,sans-serif" font-size="12.5" font-weight="700" fill="#F4EFE6" text-anchor="middle">Design skills</text><text x="956" y="112" font-family="-apple-system,'Segoe UI',Roboto,Helvetica,Arial,sans-serif" font-size="9" fill="#8FA1B8" text-anchor="middle">ui-ux-pro-max</text><text x="956" y="123" font-family="-apple-system,'Segoe UI',Roboto,Helvetica,Arial,sans-serif" font-size="9" fill="#8FA1B8" text-anchor="middle">ux-ui-mastery</text><text x="956" y="134" font-family="-apple-system,'Segoe UI',Roboto,Helvetica,Arial,sans-serif" font-size="9" fill="#8FA1B8" text-anchor="middle">Taste</text><rect x="26" y="136" width="992" height="35" fill="rgba(244,239,230,0.03)"/><text x="42" y="158" font-family="-apple-system,'Segoe UI',Roboto,Helvetica,Arial,sans-serif" font-size="13" fill="#F4EFE6">Designs and builds real pages</text><circle cx="460" cy="153.5" r="9" fill="#2FBFA7" fill-opacity="0.16" stroke="#2FBFA7" stroke-width="1.4"/>
<path d="M 455.8 153.9 l 3 3.2 l 5.4 -6.4" fill="none" stroke="#2FBFA7" stroke-width="2" stroke-linecap="round" stroke-linejoin="round"/><circle cx="584" cy="153.5" r="9" fill="#2FBFA7" fill-opacity="0.16" stroke="#2FBFA7" stroke-width="1.4"/>
<path d="M 579.8 153.9 l 3 3.2 l 5.4 -6.4" fill="none" stroke="#2FBFA7" stroke-width="2" stroke-linecap="round" stroke-linejoin="round"/><rect x="702.5" y="152.5" width="11" height="2" rx="1" fill="#54677F"/><rect x="826.5" y="152.5" width="11" height="2" rx="1" fill="#54677F"/><circle cx="956" cy="153.5" r="8" fill="none" stroke="#E4B363" stroke-width="1.4" stroke-opacity="0.85"/>
<path d="M 956 145.5 a 8 8 0 0 1 0 16 z" fill="#E4B363" fill-opacity="0.75"/><text x="42" y="193" font-family="-apple-system,'Segoe UI',Roboto,Helvetica,Arial,sans-serif" font-size="13" fill="#F4EFE6">Audits an existing site</text><circle cx="460" cy="188.5" r="9" fill="#2FBFA7" fill-opacity="0.16" stroke="#2FBFA7" stroke-width="1.4"/>
<path d="M 455.8 188.9 l 3 3.2 l 5.4 -6.4" fill="none" stroke="#2FBFA7" stroke-width="2" stroke-linecap="round" stroke-linejoin="round"/><rect x="578.5" y="187.5" width="11" height="2" rx="1" fill="#54677F"/><circle cx="708" cy="188.5" r="9" fill="#2FBFA7" fill-opacity="0.16" stroke="#2FBFA7" stroke-width="1.4"/>
<path d="M 703.8 188.9 l 3 3.2 l 5.4 -6.4" fill="none" stroke="#2FBFA7" stroke-width="2" stroke-linecap="round" stroke-linejoin="round"/><circle cx="832" cy="188.5" r="9" fill="#2FBFA7" fill-opacity="0.16" stroke="#2FBFA7" stroke-width="1.4"/>
<path d="M 827.8 188.9 l 3 3.2 l 5.4 -6.4" fill="none" stroke="#2FBFA7" stroke-width="2" stroke-linecap="round" stroke-linejoin="round"/><rect x="950.5" y="187.5" width="11" height="2" rx="1" fill="#54677F"/><rect x="26" y="206" width="992" height="35" fill="rgba(244,239,230,0.03)"/><text x="42" y="228" font-family="-apple-system,'Segoe UI',Roboto,Helvetica,Arial,sans-serif" font-size="13" fill="#F4EFE6">Routes every finding to the command that fixes it</text><circle cx="460" cy="223.5" r="9" fill="#2FBFA7" fill-opacity="0.16" stroke="#2FBFA7" stroke-width="1.4"/>
<path d="M 455.8 223.9 l 3 3.2 l 5.4 -6.4" fill="none" stroke="#2FBFA7" stroke-width="2" stroke-linecap="round" stroke-linejoin="round"/><rect x="578.5" y="222.5" width="11" height="2" rx="1" fill="#54677F"/><rect x="702.5" y="222.5" width="11" height="2" rx="1" fill="#54677F"/><rect x="826.5" y="222.5" width="11" height="2" rx="1" fill="#54677F"/><rect x="950.5" y="222.5" width="11" height="2" rx="1" fill="#54677F"/><text x="42" y="263" font-family="-apple-system,'Segoe UI',Roboto,Helvetica,Arial,sans-serif" font-size="13" fill="#F4EFE6">Deterministic 0-100 score, reproducible in CI</text><circle cx="460" cy="258.5" r="9" fill="#2FBFA7" fill-opacity="0.16" stroke="#2FBFA7" stroke-width="1.4"/>
<path d="M 455.8 258.9 l 3 3.2 l 5.4 -6.4" fill="none" stroke="#2FBFA7" stroke-width="2" stroke-linecap="round" stroke-linejoin="round"/><rect x="578.5" y="257.5" width="11" height="2" rx="1" fill="#54677F"/><circle cx="708" cy="258.5" r="8" fill="none" stroke="#E4B363" stroke-width="1.4" stroke-opacity="0.85"/>
<path d="M 708 250.5 a 8 8 0 0 1 0 16 z" fill="#E4B363" fill-opacity="0.75"/><circle cx="832" cy="258.5" r="8" fill="none" stroke="#E4B363" stroke-width="1.4" stroke-opacity="0.85"/>
<path d="M 832 250.5 a 8 8 0 0 1 0 16 z" fill="#E4B363" fill-opacity="0.75"/><rect x="950.5" y="257.5" width="11" height="2" rx="1" fill="#54677F"/><rect x="26" y="276" width="992" height="35" fill="rgba(244,239,230,0.03)"/><text x="42" y="298" font-family="-apple-system,'Segoe UI',Roboto,Helvetica,Arial,sans-serif" font-size="13" fill="#F4EFE6">Design taste scored (memorability, motion, Gestalt)</text><circle cx="460" cy="293.5" r="9" fill="#2FBFA7" fill-opacity="0.16" stroke="#2FBFA7" stroke-width="1.4"/>
<path d="M 455.8 293.9 l 3 3.2 l 5.4 -6.4" fill="none" stroke="#2FBFA7" stroke-width="2" stroke-linecap="round" stroke-linejoin="round"/><circle cx="584" cy="293.5" r="8" fill="none" stroke="#E4B363" stroke-width="1.4" stroke-opacity="0.85"/>
<path d="M 584 285.5 a 8 8 0 0 1 0 16 z" fill="#E4B363" fill-opacity="0.75"/><rect x="702.5" y="292.5" width="11" height="2" rx="1" fill="#54677F"/><rect x="826.5" y="292.5" width="11" height="2" rx="1" fill="#54677F"/><circle cx="956" cy="293.5" r="8" fill="none" stroke="#E4B363" stroke-width="1.4" stroke-opacity="0.85"/>
<path d="M 956 285.5 a 8 8 0 0 1 0 16 z" fill="#E4B363" fill-opacity="0.75"/><text x="42" y="333" font-family="-apple-system,'Segoe UI',Roboto,Helvetica,Arial,sans-serif" font-size="13" fill="#F4EFE6">SEO with structured data</text><circle cx="460" cy="328.5" r="9" fill="#2FBFA7" fill-opacity="0.16" stroke="#2FBFA7" stroke-width="1.4"/>
<path d="M 455.8 328.9 l 3 3.2 l 5.4 -6.4" fill="none" stroke="#2FBFA7" stroke-width="2" stroke-linecap="round" stroke-linejoin="round"/><rect x="578.5" y="327.5" width="11" height="2" rx="1" fill="#54677F"/><circle cx="708" cy="328.5" r="8" fill="none" stroke="#E4B363" stroke-width="1.4" stroke-opacity="0.85"/>
<path d="M 708 320.5 a 8 8 0 0 1 0 16 z" fill="#E4B363" fill-opacity="0.75"/><circle cx="832" cy="328.5" r="9" fill="#2FBFA7" fill-opacity="0.16" stroke="#2FBFA7" stroke-width="1.4"/>
<path d="M 827.8 328.9 l 3 3.2 l 5.4 -6.4" fill="none" stroke="#2FBFA7" stroke-width="2" stroke-linecap="round" stroke-linejoin="round"/><rect x="950.5" y="327.5" width="11" height="2" rx="1" fill="#54677F"/><rect x="26" y="346" width="992" height="35" fill="rgba(244,239,230,0.03)"/><text x="42" y="368" font-family="-apple-system,'Segoe UI',Roboto,Helvetica,Arial,sans-serif" font-size="13" fill="#F4EFE6">AI-search visibility (GEO, llms.txt)</text><circle cx="460" cy="363.5" r="9" fill="#2FBFA7" fill-opacity="0.16" stroke="#2FBFA7" stroke-width="1.4"/>
<path d="M 455.8 363.9 l 3 3.2 l 5.4 -6.4" fill="none" stroke="#2FBFA7" stroke-width="2" stroke-linecap="round" stroke-linejoin="round"/><rect x="578.5" y="362.5" width="11" height="2" rx="1" fill="#54677F"/><rect x="702.5" y="362.5" width="11" height="2" rx="1" fill="#54677F"/><circle cx="832" cy="363.5" r="8" fill="none" stroke="#E4B363" stroke-width="1.4" stroke-opacity="0.85"/>
<path d="M 832 355.5 a 8 8 0 0 1 0 16 z" fill="#E4B363" fill-opacity="0.75"/><rect x="950.5" y="362.5" width="11" height="2" rx="1" fill="#54677F"/><text x="42" y="403" font-family="-apple-system,'Segoe UI',Roboto,Helvetica,Arial,sans-serif" font-size="13" fill="#F4EFE6">Accessibility: WCAG 2.2 rules and contrast checks</text><circle cx="460" cy="398.5" r="9" fill="#2FBFA7" fill-opacity="0.16" stroke="#2FBFA7" stroke-width="1.4"/>
<path d="M 455.8 398.9 l 3 3.2 l 5.4 -6.4" fill="none" stroke="#2FBFA7" stroke-width="2" stroke-linecap="round" stroke-linejoin="round"/><circle cx="584" cy="398.5" r="8" fill="none" stroke="#E4B363" stroke-width="1.4" stroke-opacity="0.85"/>
<path d="M 584 390.5 a 8 8 0 0 1 0 16 z" fill="#E4B363" fill-opacity="0.75"/><circle cx="708" cy="398.5" r="9" fill="#2FBFA7" fill-opacity="0.16" stroke="#2FBFA7" stroke-width="1.4"/>
<path d="M 703.8 398.9 l 3 3.2 l 5.4 -6.4" fill="none" stroke="#2FBFA7" stroke-width="2" stroke-linecap="round" stroke-linejoin="round"/><rect x="826.5" y="397.5" width="11" height="2" rx="1" fill="#54677F"/><circle cx="956" cy="398.5" r="8" fill="none" stroke="#E4B363" stroke-width="1.4" stroke-opacity="0.85"/>
<path d="M 956 390.5 a 8 8 0 0 1 0 16 z" fill="#E4B363" fill-opacity="0.75"/><rect x="26" y="416" width="992" height="35" fill="rgba(244,239,230,0.03)"/><text x="42" y="438" font-family="-apple-system,'Segoe UI',Roboto,Helvetica,Arial,sans-serif" font-size="13" fill="#F4EFE6">CI gate on every push</text><circle cx="460" cy="433.5" r="9" fill="#2FBFA7" fill-opacity="0.16" stroke="#2FBFA7" stroke-width="1.4"/>
<path d="M 455.8 433.9 l 3 3.2 l 5.4 -6.4" fill="none" stroke="#2FBFA7" stroke-width="2" stroke-linecap="round" stroke-linejoin="round"/><rect x="578.5" y="432.5" width="11" height="2" rx="1" fill="#54677F"/><circle cx="708" cy="433.5" r="9" fill="#2FBFA7" fill-opacity="0.16" stroke="#2FBFA7" stroke-width="1.4"/>
<path d="M 703.8 433.9 l 3 3.2 l 5.4 -6.4" fill="none" stroke="#2FBFA7" stroke-width="2" stroke-linecap="round" stroke-linejoin="round"/><rect x="826.5" y="432.5" width="11" height="2" rx="1" fill="#54677F"/><rect x="950.5" y="432.5" width="11" height="2" rx="1" fill="#54677F"/><text x="42" y="473" font-family="-apple-system,'Segoe UI',Roboto,Helvetica,Arial,sans-serif" font-size="13" fill="#F4EFE6">Runs inside Claude, on your own files</text><circle cx="460" cy="468.5" r="9" fill="#2FBFA7" fill-opacity="0.16" stroke="#2FBFA7" stroke-width="1.4"/>
<path d="M 455.8 468.9 l 3 3.2 l 5.4 -6.4" fill="none" stroke="#2FBFA7" stroke-width="2" stroke-linecap="round" stroke-linejoin="round"/><rect x="578.5" y="467.5" width="11" height="2" rx="1" fill="#54677F"/><rect x="702.5" y="467.5" width="11" height="2" rx="1" fill="#54677F"/><rect x="826.5" y="467.5" width="11" height="2" rx="1" fill="#54677F"/><circle cx="956" cy="468.5" r="9" fill="#2FBFA7" fill-opacity="0.16" stroke="#2FBFA7" stroke-width="1.4"/>
<path d="M 951.8 468.9 l 3 3.2 l 5.4 -6.4" fill="none" stroke="#2FBFA7" stroke-width="2" stroke-linecap="round" stroke-linejoin="round"/><rect x="26" y="486" width="992" height="35" fill="rgba(244,239,230,0.03)"/><text x="42" y="508" font-family="-apple-system,'Segoe UI',Roboto,Helvetica,Arial,sans-serif" font-size="13" fill="#F4EFE6">Free, open source, no account</text><circle cx="460" cy="503.5" r="9" fill="#2FBFA7" fill-opacity="0.16" stroke="#2FBFA7" stroke-width="1.4"/>
<path d="M 455.8 503.9 l 3 3.2 l 5.4 -6.4" fill="none" stroke="#2FBFA7" stroke-width="2" stroke-linecap="round" stroke-linejoin="round"/><rect x="578.5" y="502.5" width="11" height="2" rx="1" fill="#54677F"/><circle cx="708" cy="503.5" r="9" fill="#2FBFA7" fill-opacity="0.16" stroke="#2FBFA7" stroke-width="1.4"/>
<path d="M 703.8 503.9 l 3 3.2 l 5.4 -6.4" fill="none" stroke="#2FBFA7" stroke-width="2" stroke-linecap="round" stroke-linejoin="round"/><rect x="826.5" y="502.5" width="11" height="2" rx="1" fill="#54677F"/><circle cx="956" cy="503.5" r="9" fill="#2FBFA7" fill-opacity="0.16" stroke="#2FBFA7" stroke-width="1.4"/>
<path d="M 951.8 503.9 l 3 3.2 l 5.4 -6.4" fill="none" stroke="#2FBFA7" stroke-width="2" stroke-linecap="round" stroke-linejoin="round"/><text x="42" y="543" font-family="-apple-system,'Segoe UI',Roboto,Helvetica,Arial,sans-serif" font-size="13" fill="#F4EFE6">Editable knowledge (rules, laws, resources as CSV)</text><circle cx="460" cy="538.5" r="9" fill="#2FBFA7" fill-opacity="0.16" stroke="#2FBFA7" stroke-width="1.4"/>
<path d="M 455.8 538.9 l 3 3.2 l 5.4 -6.4" fill="none" stroke="#2FBFA7" stroke-width="2" stroke-linecap="round" stroke-linejoin="round"/><rect x="578.5" y="537.5" width="11" height="2" rx="1" fill="#54677F"/><rect x="702.5" y="537.5" width="11" height="2" rx="1" fill="#54677F"/><rect x="826.5" y="537.5" width="11" height="2" rx="1" fill="#54677F"/><circle cx="956" cy="538.5" r="8" fill="none" stroke="#E4B363" stroke-width="1.4" stroke-opacity="0.85"/>
<path d="M 956 530.5 a 8 8 0 0 1 0 16 z" fill="#E4B363" fill-opacity="0.75"/><circle cx="34" cy="580" r="9" fill="#2FBFA7" fill-opacity="0.16" stroke="#2FBFA7" stroke-width="1.4"/>
<path d="M 29.8 580.4 l 3 3.2 l 5.4 -6.4" fill="none" stroke="#2FBFA7" stroke-width="2" stroke-linecap="round" stroke-linejoin="round"/><text x="50" y="584" font-family="-apple-system,'Segoe UI',Roboto,Helvetica,Arial,sans-serif" font-size="11.5" fill="#8FA1B8">yes</text><circle cx="96" cy="580" r="8" fill="none" stroke="#E4B363" stroke-width="1.4" stroke-opacity="0.85"/>
<path d="M 96 572 a 8 8 0 0 1 0 16 z" fill="#E4B363" fill-opacity="0.75"/><text x="112" y="584" font-family="-apple-system,'Segoe UI',Roboto,Helvetica,Arial,sans-serif" font-size="11.5" fill="#8FA1B8">partial</text><rect x="172.5" y="579" width="11" height="2" rx="1" fill="#54677F"/><text x="194" y="584" font-family="-apple-system,'Segoe UI',Roboto,Helvetica,Arial,sans-serif" font-size="11.5" fill="#8FA1B8">no</text><text x="1018" y="584" font-family="-apple-system,'Segoe UI',Roboto,Helvetica,Arial,sans-serif" font-size="11" fill="#8FA1B8" text-anchor="end">Apache-2.0 · runs inside Claude · github.com/MariusYvard/NullToHero</text></svg>
